<?xml version="1.0" standalone="no"?>
<!DOCTYPE svg PUBLIC "-//W3C//DTD SVG 20010904//EN"
 "http://www.w3.org/TR/2001/REC-SVG-20010904/DTD/svg10.dtd">
<svg version="1.0" xmlns="http://www.w3.org/2000/svg"
 width="1920.000000pt" height="746.000000pt" viewBox="0 0 1920.000000 746.000000"
 preserveAspectRatio="xMidYMid meet">

<g transform="translate(0.000000,746.000000) scale(0.100000,-0.100000)"
fill="#000000" stroke="none">
<path d="M12315 5815 c-267 -49 -445 -249 -445 -500 0 -235 159 -426 410 -492
88 -23 282 -23 370 0 215 57 368 214 400 411 35 221 -75 428 -283 531 -121 60
-295 79 -452 50z"/>
<path d="M11285 5663 c-340 -40 -526 -112 -719 -277 -163 -139 -280 -377 -307
-626 -6 -52 -13 -109 -15 -127 l-5 -32 -137 -3 -137 -3 0 -430 0 -430 138 -3
137 -3 0 -879 0 -880 520 0 520 0 0 880 0 880 190 0 190 0 0 435 0 435 -185 0
c-141 0 -185 3 -185 13 1 30 41 96 76 125 48 39 124 56 222 49 l72 -5 0 437 0
438 -52 7 c-54 6 -269 6 -323 -1z"/>
<path d="M2807 5263 c-4 -3 -7 -498 -7 -1099 0 -757 -3 -1109 -11 -1144 -13
-59 -57 -116 -106 -136 -83 -35 -210 1 -257 73 -29 44 -56 139 -56 199 0 81
47 74 -516 74 l-504 0 0 -78 c0 -247 77 -516 201 -706 105 -160 291 -313 473
-389 184 -77 330 -107 563 -114 394 -13 689 78 909 280 162 150 263 351 311
617 17 98 18 182 18 1265 l0 1160 -506 3 c-278 1 -509 -1 -512 -5z"/>
<path d="M13610 4915 l0 -315 -162 -2 -163 -3 0 -430 0 -430 163 -3 162 -2 0
-403 c0 -221 5 -441 10 -488 21 -181 87 -373 170 -494 71 -103 194 -205 315
-261 184 -85 370 -114 732 -114 l243 0 0 439 0 439 -167 4 c-186 3 -212 11
-249 72 -18 29 -19 60 -22 418 l-3 388 213 2 213 3 0 430 0 430 -212 3 -213 2
0 315 0 315 -515 0 -515 0 0 -315z"/>
<path d="M5120 4624 c-170 -16 -369 -97 -517 -210 -227 -174 -382 -467 -440
-834 -21 -133 -21 -453 1 -590 78 -503 333 -857 716 -993 124 -43 183 -52 360
-51 135 1 179 4 241 22 182 49 329 154 439 312 l25 35 5 -170 5 -170 513 -3
512 -2 0 1309 0 1309 -22 6 c-13 3 -237 6 -499 6 -365 0 -479 -3 -492 -12 -14
-11 -17 -37 -19 -173 l-3 -160 -32 45 c-108 155 -288 269 -480 306 -81 15
-241 24 -313 18z m584 -924 c74 -28 114 -57 157 -113 71 -95 103 -256 80 -407
-23 -146 -98 -253 -214 -306 -54 -24 -74 -28 -157 -28 -83 0 -103 4 -158 29
-68 30 -138 98 -173 167 -54 107 -63 298 -19 428 23 68 84 159 125 186 100 65
251 84 359 44z"/>
<path d="M8445 4623 c-235 -19 -369 -50 -511 -117 -324 -153 -494 -407 -497
-736 -1 -237 53 -374 204 -514 142 -131 299 -192 699 -272 145 -29 330 -78
370 -99 45 -23 70 -62 70 -110 0 -55 -27 -89 -87 -109 -155 -53 -339 31 -375
172 l-10 42 -495 0 -495 0 7 -56 c47 -376 352 -691 795 -820 279 -81 676 -83
958 -4 336 94 572 314 639 595 18 76 18 269 0 355 -31 141 -82 232 -190 340
-130 130 -299 199 -708 289 -256 57 -310 72 -381 107 -54 28 -71 52 -70 105 1
84 46 114 172 113 67 -1 95 -5 133 -24 56 -27 116 -92 136 -146 8 -21 19 -42
25 -46 15 -10 878 -10 894 0 29 19 -53 285 -128 411 -73 124 -199 259 -317
339 -196 133 -544 210 -838 185z"/>
<path d="M16470 4623 c-292 -28 -401 -57 -585 -156 -205 -109 -344 -289 -401
-515 -52 -210 -19 -434 87 -589 72 -105 201 -205 333 -258 77 -30 300 -88 501
-130 152 -31 320 -79 352 -100 53 -35 68 -131 27 -176 -22 -25 -104 -49 -164
-49 -51 0 -144 27 -184 54 -32 20 -73 82 -91 133 l-13 38 -492 3 -492 2 7 -66
c19 -177 114 -360 265 -513 229 -230 597 -361 1014 -361 561 0 962 218 1093
595 25 73 27 92 27 225 0 161 -11 229 -54 326 -75 166 -233 307 -423 379 -89
33 -293 86 -482 126 -343 71 -435 126 -393 237 21 57 65 77 168 77 75 -1 92
-5 140 -30 57 -31 115 -97 126 -143 13 -54 -5 -52 471 -52 390 0 444 2 450 15
8 22 -13 123 -47 222 -100 294 -337 532 -629 632 -175 60 -435 92 -611 74z"/>
<path d="M11947 4593 c-4 -3 -7 -595 -7 -1315 l0 -1308 520 0 520 0 -2 1313
-3 1312 -511 3 c-281 1 -514 -1 -517 -5z"/>
</g>
</svg>
